HIERARCHY
ROOT ui
{
	 OFFSET 0 0 0
	 CHANNELS 3 XPosition YPosition Z Position
	 EndSite
	 {
	 OFFSET 0 -1 0
	 }
}
ROOT li
{
	 OFFSET 0 0 0
	 CHANNELS 3 XPosition YPosition Z Position
	 EndSite
	 {
	 OFFSET 0 -1 0
	 }
}
ROOT ul
{
	 OFFSET 0 0 0
	 CHANNELS 3 XPosition YPosition Z Position
	 EndSite
	 {
	 OFFSET 0 -1 0
	 }
}
ROOT ll
{
	 OFFSET 0 0 0
	 CHANNELS 3 XPosition YPosition Z Position
	 EndSite
	 {
	 OFFSET 0 -1 0
	 }
}
ROOT tt
{
	 OFFSET 0 0 0
	 CHANNELS 3 XPosition YPosition Z Position
	 EndSite
	 {
	 OFFSET 0 -1 0
	 }
}
ROOT tb
{
	 OFFSET 0 0 0
	 CHANNELS 3 XPosition YPosition Z Position
	 EndSite
	 {
	 OFFSET 0 -1 0
	 }
}
ROOT td
{
	 OFFSET 0 0 0
	 CHANNELS 3 XPosition YPosition Z Position
	 EndSite
	 {
	 OFFSET 0 -1 0
	 }
}
ROOT v
{
	 OFFSET 0 0 0
	 CHANNELS 3 XPosition YPosition Z Position
	 EndSite
	 {
	 OFFSET 0 -1 0
	 }
}
ROOT bn
{
	 OFFSET 0 0 0
	 CHANNELS 3 XPosition YPosition Z Position
	 EndSite
	 {
	 OFFSET 0 -1 0
	 }
}
MOTION
Frames: 19
Frame Time: 0.002
0.019609661102294923	-0.002765984058380127	0		0.3869825134277344	-2.328327880859375	0		-1.1020535888671874	-0.10953958892822266	0		-0.906243896484375	-2.334607421875	0		2.879791748046875	-0.2872007751464844	0		4.146341796875	-0.3965472412109375	0		5.2842666015625	-0.47902886962890623	0		6.04096923828125	0.5311226806640625	0		-0.13901223754882813	5.8961484375	0		
0.006849223136901855	0.0028316280841827394	0		0.41021060180664065	-2.336218994140625	0		-1.1128779296875	-0.10905680847167969	0		-0.8927838745117187	-2.326455810546875	0		2.931248291015625	-0.26830545043945314	0		4.16843505859375	-0.4031339111328125	0		5.28035498046875	-0.48615325927734376	0		6.04420947265625	0.5399542236328125	0		-0.15447245788574218	5.88476416015625	0		
0.0070032038688659665	0.0022551019191741945	0		0.3815460205078125	-2.336349365234375	0		-1.10173095703125	-0.11087620544433593	0		-0.9174926147460938	-2.32974267578125	0		2.9518076171875	-0.24194810485839843	0		4.1696630859375	-0.4004075927734375	0		5.29050244140625	-0.48947039794921876	0		6.044322265625	0.5398383178710937	0		-0.15476719665527344	5.88417529296875	0		
6.249099969863891E-5	-0.005206326007843018	0		0.40883334350585937	-2.340267578125	0		-1.1015640869140626	-0.11152082061767578	0		-0.8771643676757812	-2.330943359375	0		2.971366943359375	-0.21556369018554689	0		4.20194775390625	-0.39411550903320314	0		5.29965380859375	-0.4927659606933594	0		6.05855322265625	0.547526611328125	0		-0.17397462463378907	5.88887158203125	0		
0.007324343204498291	0.0011471819877624512	0		0.386281005859375	-2.33245947265625	0		-1.195241943359375	-0.10081536865234375	0		-0.9496981811523437	-2.321519287109375	0		2.9960107421875	-0.18323924255371093	0		4.20213916015625	-0.394358642578125	0		5.313935546875	-0.48712890625	0		6.045791015625	0.5556010131835938	0		-0.17325115966796875	5.88729833984375	0		
0.007490725040435791	6.183769702911377E-4	0		0.4155917663574219	-2.33437109375	0		-1.0850230712890625	-0.09897949981689454	0		-0.9104032592773438	-2.324664306640625	0		3.0165830078125	-0.15584629821777343	0		4.2064169921875	-0.38865438842773437	0		5.32412060546875	-0.4884317321777344	0		6.0498056640625	0.5474341430664063	0		-0.1394105682373047	5.89227685546875	0		
0.010700098037719727	0.0030658938884735106	0		0.3869291687011719	-2.333447265625	0		-1.1618272705078125	-0.09748003387451172	0		-0.9100833740234375	-2.325234619140625	0		3.028998291015625	-0.13932942199707032	0		4.20969384765625	-0.38293212890625	0		5.3243203125	-0.488593505859375	0		6.04095263671875	0.5484461669921875	0		-0.15478193664550782	5.88096875	0		
0.0037671589851379396	-0.004325367927551269	0		0.4053045349121094	-2.329166259765625	0		-1.151685791015625	-0.10018121337890624	0		-0.911818359375	-2.32875244140625	0		3.073306640625	-0.13025059509277342	0		4.21571337890625	-0.39524761962890625	0		5.3245146484375	-0.4887580871582031	0		6.03719580078125	0.556380615234375	0		-0.15497746276855467	5.88046923828125	0		
-0.022060649871826172	-0.0034322869777679444	0		0.38752301025390623	-2.334361328125	0		-1.186465576171875	-0.09622800445556641	0		-0.9016304931640625	-2.3364111328125	0		3.0897880859375	-0.10777205657958984	0		4.21005908203125	-0.38339752197265625	0		5.3394873046875	-0.504135498046875	0		6.050193359375	0.5470704956054687	0		-0.1872605438232422	5.8724375	0		
0.011160468101501465	0.0016622409820556642	0		0.3898090515136719	-2.332815673828125	0		-1.165363525390625	-0.10002480316162109	0		-0.9165230712890625	-2.347693359375	0		3.097100341796875	-0.09616059112548828	0		4.255353515625	-0.3742566223144531	0		5.34859716796875	-0.5084368591308593	0		6.04641796875	0.554984130859375	0		-0.20535833740234374	5.8762314453125	0		
-0.011660375595092774	0.00555964994430542	0		0.38421383666992187	-2.3201376953125	0		-1.1611824951171874	-0.09655259704589844	0		-0.8882315063476562	-2.343542236328125	0		3.1194453125	-0.08075078582763671	0		4.23634130859375	-0.38522622680664065	0		5.35564404296875	-0.51571826171875	0		6.04164013671875	0.5638978881835938	0		-0.17338778686523437	5.8833583984375	0		
0.011380881309509277	8.485810160636901E-4	0		0.40625927734375	-2.330819580078125	0		-1.1339447021484375	-0.08736309051513672	0		-0.9272621459960938	-2.359429931640625	0		3.114657958984375	-0.07295989990234375	0		4.23948193359375	-0.38350338745117185	0		5.35576171875	-0.515912109375	0		6.0417177734375	0.5637296752929688	0		-0.188658935546875	5.872166015625	0		
-0.01858505439758301	-0.0021034998893737795	0		0.3784468688964844	-2.32778759765625	0		-1.1610045166015626	-0.0973907470703125	0		-0.8593167114257813	-2.37475830078125	0		3.157880126953125	-0.06282321548461914	0		4.2574404296875	-0.3929864501953125	0		5.35585009765625	-0.5161141967773437	0		6.03766357421875	0.555604248046875	0		-0.18876559448242186	5.871794921875	0		
0.008455817222595214	-0.0028112618923187256	0		0.3765044860839844	-2.331087158203125	0		-1.1499736328125	-0.09890571594238282	0		-0.944263916015625	-2.37794677734375	0		3.162007080078125	-0.05714017105102539	0		4.24853515625	-0.39009841918945315	0		5.3707255859375	-0.5295283203125	0		6.03791357421875	0.57140966796875	0		-0.17272573852539064	5.88123291015625	0		
-0.018529293060302734	-0.002746639013290405	0		0.388487060546875	-2.336551025390625	0		-1.1808607177734376	-0.09180675506591797	0		-0.8764093017578125	-2.39320068359375	0		3.16119873046875	-0.04437939453125	0		4.2766201171875	-0.3857161560058594	0		5.3748837890625	-0.5197979736328125	0		6.0459150390625	0.5710975341796874	0		-0.20689349365234375	5.87539111328125	0		
0.015543950080871583	0.003512507915496826	0		0.3905203552246094	-2.33484814453125	0		-1.18781005859375	-0.08699806213378906	0		-0.886552490234375	-2.40434619140625	0		3.188465087890625	-0.023990694046020507	0		4.27660498046875	-0.38594305419921876	0		5.380732421875	-0.5300941772460938	0		6.0458896484375	0.5708900756835937	0		-0.18804786682128907	5.86985498046875	0		
-0.019490457534790038	0.004752345085144043	0		0.388454345703125	-2.337058349609375	0		-1.14786474609375	-0.08779246520996094	0		-0.8719486083984375	-2.430793701171875	0		3.188413818359375	-0.02421331214904785	0		4.289541015625	-0.387337890625	0		5.38658740234375	-0.5373865356445312	0		6.04561572265625	0.554684326171875	0		-0.1739677734375	5.88142138671875	0		
0.00831478214263916	-0.003834850072860718	0		0.3843050537109375	-2.34220703125	0		-1.193874267578125	-0.082367431640625	0		-0.8953564453125	-2.45468115234375	0		3.188331298828125	-0.02441572189331055	0		4.27461083984375	-0.37633514404296875	0		5.3936826171875	-0.524684814453125	0		6.04164306640625	0.56253759765625	0		-0.13997457885742187	5.88675048828125	0		
-0.019684913635253907	0.0043806471824645995	0		0.38418487548828123	-2.3423759765625	0		-1.1880556640625	-0.08761255645751953	0		-0.8342230834960938	-2.509690185546875	0		3.19819091796875	-0.02673130226135254	0		4.2923720703125	-0.3857635192871094	0		5.40529345703125	-0.5450338745117187	0		6.0413134765625	0.5463504638671876	0		-0.17315879821777344	5.88003662109375	0		
